<svg width="661" height="521" viewBox="0 0 661 521" fill="none" xmlns="http://www.w3.org/2000/svg">
<g opacity="0.6">
<path fill-rule="evenodd" clip-rule="evenodd" d="M136.793 413.275C69.9352 389.784 37.4638 288.25 -4.84338 231.401C-46.3798 175.587 -241.279 367.784 -253.39 299.272C-267.204 221.125 -103.118 12.1802 -11.6598 -10.0936C28.2217 -82.3694 -168.585 -327.611 105.68 -300.604C209.026 -290.427 196.287 -173.659 274.88 -164.249C326.341 -158.088 491.332 -187.877 495.724 -122.053C500.116 -56.2286 418.351 -0.92363 441.067 64.9251C463.711 130.567 576.425 215.66 535.245 280.154C493.705 345.214 392.312 252.796 318.199 274.375C248.143 294.773 205.632 437.462 136.793 413.275Z" stroke="url(#paint0_linear_22_122)" stroke-width="2.3571"/>
<path fill-rule="evenodd" clip-rule="evenodd" d="M123.678 370.878C60.7759 348.777 52.3476 257.478 12.5436 203.992C-26.5351 151.481 -232.024 328.078 -243.419 263.621C-256.415 190.097 -102.038 -6.4842 -15.9911 -27.4401C21.5306 -95.4394 -140.429 -283.17 92.2517 -286.049C166.361 -293.382 202.416 -143.84 274.532 -145.11C346.649 -146.379 408.852 -161.82 461.371 -132.775C507.771 -86.4944 401.873 -21.8959 409.948 43.1398C418.819 114.583 548.685 197.735 509.942 258.413C470.86 319.623 361.691 229.739 291.963 250.041C226.052 269.232 188.444 393.634 123.678 370.878Z" stroke="url(#paint1_linear_22_122)" stroke-width="2.3571"/>
<path fill-rule="evenodd" clip-rule="evenodd" d="M126.031 343.265C63.1298 321.164 56.4416 222.175 16.6377 168.69C-22.4411 116.178 -262.831 317.403 -274.225 252.946C-287.222 179.422 -132.845 -17.1597 -46.7979 -38.1156C-9.27615 -106.115 -151.514 -255.824 81.1668 -258.703C155.276 -266.036 171.199 -159.057 239.977 -130.497C297.691 -106.532 345.781 -143.528 424.185 -121.635C502.589 -99.742 371.066 -32.5714 379.141 32.4644C388.012 103.908 517.878 187.059 479.135 247.738C455.041 285.474 344.518 202.502 265.444 230.054C199.215 253.13 190.798 366.021 126.031 343.265Z" stroke="url(#paint2_linear_22_122)" stroke-width="2.3571"/>
<path fill-rule="evenodd" clip-rule="evenodd" d="M124 322.223C61.0984 300.122 65.1295 198.434 25.3256 144.949C-13.7532 92.4372 -288.965 294.843 -300.359 230.386C-313.356 156.862 -158.979 -39.7197 -72.9317 -60.6756C-35.41 -128.675 -158.588 -245.625 74.0932 -248.504C148.203 -255.838 147.945 -149.498 216.722 -120.939C274.437 -96.9739 370.645 -117.891 411.244 -100.884C451.844 -83.8765 350.021 -26.0627 358.097 38.973C366.967 110.417 491.744 164.499 453.001 225.178C428.907 262.914 329.696 183.249 250.622 210.801C184.393 233.877 188.766 344.979 124 322.223Z" stroke="url(#paint3_linear_22_122)" stroke-width="2.3571"/>
<path fill-rule="evenodd" clip-rule="evenodd" d="M118.206 300.102C65.5676 276.568 68.394 172.319 28.5901 118.833C-10.4886 66.3217 -314.897 271.214 -326.292 206.756C-339.288 133.233 -184.911 -63.3491 -98.8641 -84.3049C-61.3424 -152.304 -32.1506 -279.502 48.1609 -272.134C128.472 -264.766 151.066 -108.548 213.772 -97.2472C276.478 -85.946 349.452 -102.222 383.161 -88.6273C416.87 -75.0326 338.243 -29.4703 332.164 15.3437C321.193 96.2208 465.812 140.87 427.069 201.548C402.975 239.284 311.171 162.716 232.096 190.268C165.867 213.344 182.972 322.858 118.206 300.102Z" stroke="url(#paint4_linear_22_122)" stroke-width="2.3571"/>
<path fill-rule="evenodd" clip-rule="evenodd" d="M120.097 278.511C62.6685 258.333 70.9368 142.863 34.5964 94.0313C-8.17501 59.1054 -285.101 242.878 -295.504 184.029C-307.37 116.903 -166.426 -62.5734 -87.8661 -81.7058C-53.6093 -143.788 -166.069 -250.562 46.3655 -253.191C114.026 -259.886 137.829 -106.742 200.622 -80.6676C253.314 -58.7877 342.361 -92.9254 358.562 -75.3944C374.763 -57.8634 314.375 -28.7293 305.656 9.27196C288.093 85.8208 436.173 130.977 400.866 186.416C390.495 202.7 308.31 153.027 233.838 170.308C163.649 186.595 179.227 299.287 120.097 278.511Z" stroke="url(#paint5_linear_22_122)" stroke-width="2.3571"/>
<path fill-rule="evenodd" clip-rule="evenodd" d="M119.875 258.328C69.2887 240.554 83.0822 126.889 48.6283 88.3605C23.3342 35.0868 -196.732 187.66 -205.895 135.823C-211.231 105.638 -128.444 -49.5864 -59.2439 -66.4393C-29.0685 -121.125 -48.3227 -235.376 51.3678 -226.683C110.967 -232.581 139.562 -88.4926 194.874 -65.5248C241.288 -46.2517 325.393 -70.7747 333.996 -60.8798C342.6 -50.985 295.074 -19.7745 287.394 13.6993C271.924 81.1281 402.361 120.904 371.26 169.738C362.125 184.082 289.732 140.327 224.132 155.549C162.306 169.896 171.961 276.629 119.875 258.328Z" stroke="url(#paint6_linear_22_122)" stroke-width="2.3571"/>
<path fill-rule="evenodd" clip-rule="evenodd" d="M118.942 240.57C74.9369 214.589 106.543 79.532 24.9936 65.3072C-35.2741 63.8175 -223.44 167.024 -232.603 115.187C-237.939 85.0021 -155.152 -70.2224 -85.9517 -87.0754C-55.7763 -141.761 -75.0304 -256.013 24.66 -247.319C84.2597 -253.217 129.193 -75.6037 184.505 -52.636C230.919 -33.3629 304.788 -58.6179 305.243 -46.093C305.698 -33.5681 273.047 -11.8276 266.673 15.9969C253.224 74.7009 356.716 106.298 349.402 152.261C346.73 169.056 282.275 129.86 216.675 145.082C154.849 159.429 164.868 253.994 118.942 240.57Z" stroke="url(#paint7_linear_22_122)" stroke-width="2.3571"/>
<path fill-rule="evenodd" clip-rule="evenodd" d="M123.886 223.648C88.4713 207.175 110.622 110.451 67.3139 68.4758C7.8568 10.8491 -144.354 121.104 -153.055 103.094C-163.73 80.9982 -91.0506 -45.3375 -35.6516 -58.8293C-11.4943 -102.609 -26.9085 -194.074 52.8998 -187.114C100.613 -191.836 136.585 -49.6456 180.865 -31.2585C218.023 -15.8292 271.833 -40.9219 272.197 -30.895C272.562 -20.8681 249.765 0.35863 246.646 23.6864C240.255 71.4745 341.662 115.89 323.356 130.654C305.051 145.418 267.472 119.916 214.956 132.102C165.46 143.588 151.367 227.56 123.886 223.648Z" stroke="url(#paint8_linear_22_122)" stroke-width="2.3571"/>
<path fill-rule="evenodd" clip-rule="evenodd" d="M126.32 203.371C102.075 208.531 120.307 92.2119 79.0911 62.7541C-26.8585 -12.9702 -101.354 109.753 -108.723 94.5005C-117.763 75.7881 -56.2123 -31.2035 -9.29584 -42.6295C11.1626 -79.7055 -1.89142 -157.166 65.6969 -151.272C106.104 -155.27 136.569 -34.8519 174.069 -19.2802C205.537 -6.21337 251.108 -27.464 251.416 -18.9724C251.725 -10.4807 232.419 7.49582 229.777 27.2517C224.365 67.7227 298.433 98.9952 291.504 116.971C287.358 127.73 247.415 108.747 202.939 119.067C161.022 128.794 150.564 198.21 126.32 203.371Z" stroke="url(#paint9_linear_22_122)" stroke-width="2.3571"/>
<path fill-rule="evenodd" clip-rule="evenodd" d="M123.868 182.54C108.346 163.136 126.09 80.7655 90.0929 55.0374C-2.44186 -11.099 -60.9033 74.3792 -67.3392 61.0576C-75.2349 44.7144 -35.5527 -22.3338 5.42345 -32.3131C23.2915 -64.6947 11.8903 -132.347 70.921 -127.2C106.212 -130.692 140.397 -21.3031 173.15 -7.70305C200.634 3.70934 230.062 -13.2729 230.331 -5.85646C230.601 1.56002 216.534 11.4656 214.226 28.7201C209.499 64.0669 274.189 91.3798 268.138 107.08C264.516 116.476 229.631 99.897 190.787 108.911C154.177 117.406 139.39 201.944 123.868 182.54Z" stroke="url(#paint10_linear_22_122)" stroke-width="2.3571"/>
<path fill-rule="evenodd" clip-rule="evenodd" d="M126.34 161.396C120.142 137.722 131.314 72.1834 99.5769 49.5004C17.9939 -8.80863 -44.7036 66.281 -50.3778 54.5361C-57.339 40.1272 -22.3533 -18.9858 13.7732 -27.784C29.5265 -56.3332 19.4747 -115.979 71.5189 -111.44C102.633 -114.519 135.332 -10.0654 164.208 1.92509C188.439 11.9868 212.486 -0.0528143 212.723 6.4859C212.961 13.0246 203.529 17.7266 201.494 32.9389C197.327 64.1023 250.73 81.2695 245.394 95.1116C242.201 103.395 211.445 88.7787 177.198 96.7255C144.921 104.215 132.539 185.071 126.34 161.396Z" stroke="url(#paint11_linear_22_122)" stroke-width="2.3571"/>
<path fill-rule="evenodd" clip-rule="evenodd" d="M130.285 138.942C126.976 114.359 134.44 63.9 107.912 44.9395C39.7178 -3.80008 -15.2634 40.5899 -20.0064 30.7724C-25.8251 18.7282 1.93279 -10.7798 32.1304 -18.1341C45.2983 -41.998 31.2494 -99.7313 74.7523 -95.9377C100.76 -98.5113 134.027 0.629965 158.164 10.6526C178.418 19.0631 196.442 11.1863 196.64 16.6519C196.839 22.1175 190.271 22.5669 188.571 35.2827C185.087 61.3317 230.199 73.0221 225.739 84.5925C223.07 91.5169 197.361 79.2989 168.735 85.9416C141.755 92.2021 133.594 163.525 130.285 138.942Z" stroke="url(#paint12_linear_22_122)" stroke-width="2.3571"/>
</g>
<defs>
<linearGradient id="paint0_linear_22_122" x1="546.813" y1="302.687" x2="-104.71" y2="-71.8962" gradientUnits="userSpaceOnUse">
<stop stop-color="#19586F"/>
<stop offset="1" stop-color="#227C9D"/>
</linearGradient>
<linearGradient id="paint1_linear_22_122" x1="522.133" y1="275.015" x2="-98.2069" y2="-89.3419" gradientUnits="userSpaceOnUse">
<stop stop-color="#19586F"/>
<stop offset="1" stop-color="#227C9D"/>
</linearGradient>
<linearGradient id="paint2_linear_22_122" x1="488.715" y1="273.272" x2="-125.257" y2="-97.3964" gradientUnits="userSpaceOnUse">
<stop stop-color="#19586F"/>
<stop offset="1" stop-color="#227C9D"/>
</linearGradient>
<linearGradient id="paint3_linear_22_122" x1="460.322" y1="259.036" x2="-147.644" y2="-117.525" gradientUnits="userSpaceOnUse">
<stop stop-color="#19586F"/>
<stop offset="1" stop-color="#227C9D"/>
</linearGradient>
<linearGradient id="paint4_linear_22_122" x1="433.905" y1="236.344" x2="-172.981" y2="-140.958" gradientUnits="userSpaceOnUse">
<stop stop-color="#19586F"/>
<stop offset="1" stop-color="#227C9D"/>
</linearGradient>
<linearGradient id="paint5_linear_22_122" x1="408.552" y1="213.316" x2="-152.423" y2="-137.667" gradientUnits="userSpaceOnUse">
<stop stop-color="#19586F"/>
<stop offset="1" stop-color="#227C9D"/>
</linearGradient>
<linearGradient id="paint6_linear_22_122" x1="382.019" y1="177.775" x2="-90.3849" y2="-114.84" gradientUnits="userSpaceOnUse">
<stop stop-color="#19586F"/>
<stop offset="1" stop-color="#227C9D"/>
</linearGradient>
<linearGradient id="paint7_linear_22_122" x1="360.286" y1="155.602" x2="-113.601" y2="-141.096" gradientUnits="userSpaceOnUse">
<stop stop-color="#19586F"/>
<stop offset="1" stop-color="#227C9D"/>
</linearGradient>
<linearGradient id="paint8_linear_22_122" x1="328.124" y1="151.625" x2="-64.2407" y2="-89.878" gradientUnits="userSpaceOnUse">
<stop stop-color="#19586F"/>
<stop offset="1" stop-color="#227C9D"/>
</linearGradient>
<linearGradient id="paint9_linear_22_122" x1="293.24" y1="138.954" x2="-37.8828" y2="-61.0708" gradientUnits="userSpaceOnUse">
<stop stop-color="#19586F"/>
<stop offset="1" stop-color="#227C9D"/>
</linearGradient>
<linearGradient id="paint10_linear_22_122" x1="269.383" y1="126.815" x2="-16.3188" y2="-43.9357" gradientUnits="userSpaceOnUse">
<stop stop-color="#19586F"/>
<stop offset="1" stop-color="#227C9D"/>
</linearGradient>
<linearGradient id="paint11_linear_22_122" x1="246.577" y1="112.227" x2="-5.19411" y2="-38.4318" gradientUnits="userSpaceOnUse">
<stop stop-color="#19586F"/>
<stop offset="1" stop-color="#227C9D"/>
</linearGradient>
<linearGradient id="paint12_linear_22_122" x1="227.464" y1="96.6457" x2="13.39" y2="-30.7558" gradientUnits="userSpaceOnUse">
<stop stop-color="#19586F"/>
<stop offset="1" stop-color="#227C9D"/>
</linearGradient>
</defs>
</svg>
