<svg width="1100" height="674" viewBox="0 0 1100 674" fill="none" xmlns="http://www.w3.org/2000/svg">
<g opacity="0.6">
<path fill-rule="evenodd" clip-rule="evenodd" d="M696.984 226.706C749.608 274.166 740.407 380.368 757.515 449.136C774.311 516.652 1028.26 414.496 1013.01 482.377C995.613 559.806 763.636 689.299 670.662 674.575C605.991 725.877 692.984 1028.05 450.355 897.352C358.93 848.103 415.72 745.283 346.836 706.289C301.733 680.756 138.019 644.606 159.354 582.181C180.689 519.755 277.458 500.265 281.897 430.75C286.323 361.453 215.149 239.471 278.017 195.849C341.436 151.845 399.339 276.218 476.041 284.893C548.543 293.093 642.799 177.84 696.984 226.706Z" stroke="url(#paint0_linear_22_22)" stroke-width="2.3571"/>
<path fill-rule="evenodd" clip-rule="evenodd" d="M692.732 270.881C742.243 315.533 714.806 403.019 730.902 467.718C746.704 531.239 1004.41 447.559 990.058 511.424C973.692 584.272 755.44 706.103 667.968 692.25C607.123 740.516 684.147 976.188 468.358 889.102C397.155 867.285 421.566 715.407 354.539 688.764C287.513 662.121 224.167 652.376 186.914 605.322C161.953 544.727 284.573 525.97 302.206 462.851C321.577 393.514 233.829 266.709 292.977 225.667C352.643 184.267 418.699 309.301 490.862 317.463C559.074 325.178 641.754 224.906 692.732 270.881Z" stroke="url(#paint1_linear_22_22)" stroke-width="2.3571"/>
<path fill-rule="evenodd" clip-rule="evenodd" d="M679.91 295.45C729.421 340.102 697.413 434.011 713.509 498.71C729.311 562.231 1028.71 469.29 1014.36 533.155C997.998 606.003 779.746 727.834 692.274 713.981C631.429 762.247 704.921 955.233 489.133 868.147C417.929 846.33 444.498 741.486 392.057 688.61C348.051 644.239 289.413 659.825 225.519 609.387C161.625 558.948 308.879 547.701 326.512 484.583C345.882 415.245 258.135 288.44 317.283 247.399C354.067 221.875 424.038 341.054 507.621 346.132C577.626 350.385 628.932 249.475 679.91 295.45Z" stroke="url(#paint2_linear_22_22)" stroke-width="2.3571"/>
<path fill-rule="evenodd" clip-rule="evenodd" d="M673.669 315.648C723.18 360.299 680.241 452.564 696.337 517.264C712.139 580.784 1044.12 500.184 1029.77 564.049C1013.41 636.897 795.157 758.728 707.685 744.875C646.84 793.142 715.381 948.552 499.592 861.466C428.388 839.649 469.64 741.636 417.199 688.76C373.193 644.39 276.361 626.582 245.462 595.232C214.563 563.882 330.806 549.813 348.439 486.694C367.809 417.357 273.545 319.334 332.693 278.293C369.478 252.769 430.287 364.535 513.87 369.613C583.875 373.866 622.69 269.673 673.669 315.648Z" stroke="url(#paint3_linear_22_22)" stroke-width="2.3571"/>
<path fill-rule="evenodd" clip-rule="evenodd" d="M670.482 338.292C709.972 380.307 667.156 475.4 683.252 540.1C699.054 603.62 1058.93 531.987 1044.59 595.852C1028.22 668.7 809.969 790.531 722.497 776.678C661.652 824.945 585.661 931.042 514.404 893.269C443.148 855.496 482.554 702.651 429.058 668.039C375.562 633.427 301.957 620.299 276.1 594.755C250.242 569.211 340.358 557.499 363.251 518.497C404.566 448.109 288.358 351.137 347.506 310.096C384.29 284.572 439.46 390.624 523.043 395.702C593.048 399.955 619.504 292.317 670.482 338.292Z" stroke="url(#paint4_linear_22_22)" stroke-width="2.3571"/>
<path fill-rule="evenodd" clip-rule="evenodd" d="M660.411 357.483C705.614 398.249 653.45 501.596 668.145 560.666C694.137 609.386 1020.52 546.639 1007.42 604.947C992.474 671.456 793.214 782.686 713.353 770.038C657.802 814.105 720.379 955.992 523.367 876.484C458.359 856.565 495.464 706.089 447.586 657.814C407.409 617.304 312.085 614.457 303.899 592.034C295.714 569.611 362.665 566.021 385.366 534.323C431.094 470.47 311.887 371.696 365.846 334.164C381.694 323.14 438.362 400.667 513.738 413.446C584.778 425.49 613.869 315.508 660.411 357.483Z" stroke="url(#paint5_linear_22_22)" stroke-width="2.3571"/>
<path fill-rule="evenodd" clip-rule="evenodd" d="M652.831 376.189C692.649 412.099 636.083 511.65 653.011 560.486C655.801 619.393 917.687 563.501 906.148 614.862C899.429 644.769 763.179 756.054 692.833 744.914C643.901 783.73 617.6 896.568 528.976 850.098C471.712 832.552 500.903 688.584 458.729 646.06C423.34 610.376 336.284 600.564 332.162 588.116C328.04 575.669 383.927 565.203 403.923 537.281C444.203 481.036 339.199 394.03 386.728 360.969C400.689 351.259 450.605 419.549 517 430.806C579.576 441.415 611.834 339.216 652.831 376.189Z" stroke="url(#paint6_linear_22_22)" stroke-width="2.3571"/>
<path fill-rule="evenodd" clip-rule="evenodd" d="M646.843 392.934C677.423 433.877 596.173 546.294 665.926 590.871C720.956 615.49 934.369 592.842 922.83 644.203C916.112 674.11 779.862 785.395 709.516 774.254C660.583 813.071 634.282 925.908 545.658 879.438C488.395 861.893 515.441 680.691 473.267 638.168C437.877 602.484 359.983 597.295 364.394 585.564C368.805 573.832 407.315 566.367 423.928 543.154C458.977 494.179 375.679 425.111 400.154 385.525C409.097 371.06 453.448 432.083 519.843 443.339C582.419 453.948 609.648 362.835 646.843 392.934Z" stroke="url(#paint7_linear_22_22)" stroke-width="2.3571"/>
<path fill-rule="evenodd" clip-rule="evenodd" d="M635.755 406.639C662.076 435.497 604.334 516.195 628.102 571.625C660.733 647.725 843.691 604.706 844.773 624.679C846.1 649.182 730.318 737.712 674.001 728.793C634.828 759.868 613.773 850.202 542.823 812.999C496.981 798.953 518.633 653.891 484.87 619.848C456.538 591.281 397.213 593.678 400.745 584.287C404.276 574.895 433.495 564.103 445.371 543.783C469.698 502.157 393.268 422.067 415.851 415.506C438.435 408.944 463.27 446.966 516.424 455.978C566.52 464.471 611.909 392.431 635.755 406.639Z" stroke="url(#paint8_linear_22_22)" stroke-width="2.3571"/>
<path fill-rule="evenodd" clip-rule="evenodd" d="M625.689 424.409C650.048 428.999 588.364 529.287 615.029 572.362C683.576 683.091 799.64 598.594 800.556 615.509C801.68 636.261 703.626 711.235 655.933 703.682C622.757 729.999 604.926 806.5 544.84 774.995C506.017 763.099 524.354 640.248 495.76 611.418C471.767 587.225 421.525 589.255 424.516 581.302C427.507 573.348 452.252 564.208 462.309 547C482.912 511.748 426.636 454.327 439.962 440.414C447.937 432.088 477.468 465.007 522.483 472.639C564.908 479.832 601.33 419.82 625.689 424.409Z" stroke="url(#paint9_linear_22_22)" stroke-width="2.3571"/>
<path fill-rule="evenodd" clip-rule="evenodd" d="M619.917 444.574C626.754 468.463 578.613 537.617 601.903 575.238C661.77 671.947 748.676 615.63 749.476 630.404C750.457 648.527 687.986 695.083 646.331 688.486C617.356 711.471 601.783 778.287 549.305 750.77C515.397 740.381 526.046 626.271 501.074 601.091C480.118 579.961 446.417 584.279 449.029 577.333C451.64 570.386 468.439 566.672 477.223 551.643C495.217 520.854 446.066 470.704 457.705 458.553C464.671 451.281 490.463 480.032 529.778 486.697C566.832 492.979 613.079 420.685 619.917 444.574Z" stroke="url(#paint10_linear_22_22)" stroke-width="2.3571"/>
<path fill-rule="evenodd" clip-rule="evenodd" d="M609.481 463.128C606.069 487.361 570.484 543.52 591.017 576.689C643.799 661.952 730.606 616.854 731.312 629.879C732.177 645.858 677.099 686.903 640.374 681.087C614.829 701.352 601.098 760.259 554.831 735.999C524.936 726.84 535.054 617.856 513.037 595.656C494.562 577.027 467.732 578.861 470.035 572.736C472.337 566.612 482.853 565.912 490.597 552.661C506.461 525.516 463.812 489.08 474.073 478.367C480.214 471.955 502.953 497.304 537.615 503.18C570.284 508.719 612.893 438.895 609.481 463.128Z" stroke="url(#paint11_linear_22_22)" stroke-width="2.3571"/>
<path fill-rule="evenodd" clip-rule="evenodd" d="M597.181 482.324C590.753 506.281 564.405 549.957 581.568 577.682C625.687 648.952 693.535 629.203 694.125 640.09C694.848 653.446 657.857 669.965 627.159 665.104C605.806 682.043 596.501 740.728 557.827 720.449C532.839 712.792 540.384 608.491 521.98 589.935C506.536 574.363 486.869 574.679 488.794 569.56C490.719 564.441 496.952 566.559 503.425 555.483C516.686 532.793 479.573 504.608 488.15 495.653C493.284 490.294 512.291 511.482 541.265 516.394C568.572 521.024 603.61 458.366 597.181 482.324Z" stroke="url(#paint12_linear_22_22)" stroke-width="2.3571"/>
</g>
<defs>
<linearGradient id="paint0_linear_22_22" x1="276.034" y1="170.599" x2="732.677" y2="767.484" gradientUnits="userSpaceOnUse">
<stop stop-color="#19586F"/>
<stop offset="1" stop-color="#227C9D"/>
</linearGradient>
<linearGradient id="paint1_linear_22_22" x1="288.133" y1="205.648" x2="719.948" y2="781.072" gradientUnits="userSpaceOnUse">
<stop stop-color="#19586F"/>
<stop offset="1" stop-color="#227C9D"/>
</linearGradient>
<linearGradient id="paint2_linear_22_22" x1="318.293" y1="220.145" x2="741.799" y2="798.936" gradientUnits="userSpaceOnUse">
<stop stop-color="#19586F"/>
<stop offset="1" stop-color="#227C9D"/>
</linearGradient>
<linearGradient id="paint3_linear_22_22" x1="338.998" y1="244.231" x2="754.691" y2="826.142" gradientUnits="userSpaceOnUse">
<stop stop-color="#19586F"/>
<stop offset="1" stop-color="#227C9D"/>
</linearGradient>
<linearGradient id="paint4_linear_22_22" x1="354.619" y1="275.356" x2="769.029" y2="857.534" gradientUnits="userSpaceOnUse">
<stop stop-color="#19586F"/>
<stop offset="1" stop-color="#227C9D"/>
</linearGradient>
<linearGradient id="paint5_linear_22_22" x1="369.128" y1="306.381" x2="751.331" y2="846.569" gradientUnits="userSpaceOnUse">
<stop stop-color="#19586F"/>
<stop offset="1" stop-color="#227C9D"/>
</linearGradient>
<linearGradient id="paint6_linear_22_22" x1="379.902" y1="349.405" x2="702.897" y2="801.581" gradientUnits="userSpaceOnUse">
<stop stop-color="#19586F"/>
<stop offset="1" stop-color="#227C9D"/>
</linearGradient>
<linearGradient id="paint7_linear_22_22" x1="391.401" y1="378.245" x2="714.191" y2="834.759" gradientUnits="userSpaceOnUse">
<stop stop-color="#19586F"/>
<stop offset="1" stop-color="#227C9D"/>
</linearGradient>
<linearGradient id="paint8_linear_22_22" x1="419.541" y1="394.319" x2="688.403" y2="768.466" gradientUnits="userSpaceOnUse">
<stop stop-color="#19586F"/>
<stop offset="1" stop-color="#227C9D"/>
</linearGradient>
<linearGradient id="paint9_linear_22_22" x1="446.838" y1="419.463" x2="675.195" y2="731.722" gradientUnits="userSpaceOnUse">
<stop stop-color="#19586F"/>
<stop offset="1" stop-color="#227C9D"/>
</linearGradient>
<linearGradient id="paint10_linear_22_22" x1="464.168" y1="439.864" x2="661.908" y2="707.595" gradientUnits="userSpaceOnUse">
<stop stop-color="#19586F"/>
<stop offset="1" stop-color="#227C9D"/>
</linearGradient>
<linearGradient id="paint11_linear_22_22" x1="479.583" y1="462.119" x2="653.767" y2="698.227" gradientUnits="userSpaceOnUse">
<stop stop-color="#19586F"/>
<stop offset="1" stop-color="#227C9D"/>
</linearGradient>
<linearGradient id="paint12_linear_22_22" x1="491.207" y1="483.867" x2="639.582" y2="683.977" gradientUnits="userSpaceOnUse">
<stop stop-color="#19586F"/>
<stop offset="1" stop-color="#227C9D"/>
</linearGradient>
</defs>
</svg>
